<?xml version="1.0" encoding="utf-8"?>
<!-- Generator: Adobe Illustrator 16.0.0, SVG Export Plug-In . SVG Version: 6.00 Build 0)  -->
<!DOCTYPE svg PUBLIC "-//W3C//DTD SVG 1.1//EN" "http://www.w3.org/Graphics/SVG/1.1/DTD/svg11.dtd">
<svg version="1.1" id="Layer_1" xmlns="http://www.w3.org/2000/svg" xmlns:xlink="http://www.w3.org/1999/xlink" x="0px" y="0px"
	 width="70px" height="30px" viewBox="0 0 70 30" enable-background="new 0 0 70 30" xml:space="preserve">
<g>
	<g>
		<g>
			<g>
				<g>
					<g>
						<path fill="#3B5B78" d="M13.907,23.501v3.221c0,0.733-0.245,1.182-1.183,1.182H1.183C0.246,27.903,0,27.455,0,26.722v-3.221
							c0-0.735,0.246-1.184,1.183-1.184h2.57V6.739H1.265c-0.939,0-1.184-0.447-1.184-1.182V2.253c0-0.733,0.245-1.181,1.184-1.181
							h11.336c0.939,0,1.185,0.447,1.185,1.181v3.303c0,0.735-0.246,1.182-1.185,1.182h-2.445v15.579h2.569
							C13.662,22.317,13.907,22.766,13.907,23.501z"/>
						<path fill="#3B5B78" d="M40.169,27.865l-1.959,1.589c-0.651,0.654-1.305,0.737-1.833,0.203l-1.958-2.001
							c-1.714,0.736-3.428,0.901-5.181,0.901c-4.851,0-10.886-2.775-10.886-9.219V9.715c0-6.441,6.035-9.215,10.886-9.215
							c4.854,0,10.971,2.774,10.971,9.215v9.624c0,2.08-0.365,3.55-1.428,4.896l1.549,1.754
							C40.863,26.478,40.863,27.173,40.169,27.865z M33.847,10.248c0-2.611-1.876-4.12-4.567-4.12c-2.651,0-4.525,1.509-4.525,4.12
							v8.48c0,2.61,1.874,4.119,4.525,4.119c2.69,0,4.567-1.509,4.567-4.119V10.248z"/>
					</g>
					<g>
						<path fill="#3B5B78" d="M55.661,12.927c-0.573,0-0.97,0.427-0.97,1.028v1.781c0,0.604,0.396,1.023,0.97,1.023
							c0.572,0,0.975-0.42,0.975-1.023v-1.781C56.636,13.354,56.233,12.927,55.661,12.927z"/>
						<path fill="#3B5B78" d="M61.288,12.927c-0.575,0-0.97,0.427-0.97,1.028v1.781c0,0.604,0.395,1.023,0.97,1.023
							c0.573,0,0.979-0.42,0.979-1.023v-1.781C62.267,13.354,61.861,12.927,61.288,12.927z"/>
						<path fill="#3B5B78" d="M67.16,10.565L52.478,2.088c-3.785-2.188-6.882-0.401-6.882,3.972v16.958
							c0,4.367,3.097,6.157,6.882,3.974l14.683-8.48C70.947,16.324,70.947,12.747,67.16,10.565z M50.09,18.078
							c-1.183,0-2.254-0.773-2.254-1.776c0-0.246,0.055-0.282,0.263-0.282h0.836c0.16,0,0.199,0.045,0.235,0.207
							c0.141,0.45,0.666,0.553,0.978,0.553c0.393,0,0.884-0.233,0.884-0.74c0-0.498-0.349-0.742-0.998-0.742h-0.42
							c-0.217,0-0.256-0.055-0.256-0.273v-0.601c0-0.141,0.039-0.235,0.112-0.32l0.984-1.034h-2.035
							c-0.215,0-0.272-0.112-0.272-0.272v-0.759c0-0.171,0.058-0.272,0.272-0.272h3.589c0.213,0,0.271,0.102,0.271,0.272v0.759
							c0,0.125-0.03,0.179-0.103,0.272l-1.176,1.25c0.658,0.15,1.427,0.742,1.427,1.708C52.428,17.38,51.358,18.068,50.09,18.078z
							 M58.007,15.943c0,1.483-1.302,2.135-2.346,2.135c-1.035,0-2.338-0.651-2.338-2.135v-2.197c0-1.482,1.303-2.133,2.338-2.133
							c1.044,0,2.346,0.65,2.346,2.133V15.943z M63.636,15.943c0,1.483-1.305,2.135-2.348,2.135c-1.034,0-2.34-0.651-2.34-2.135
							v-2.197c0-1.482,1.306-2.133,2.34-2.133c1.043,0,2.348,0.65,2.348,2.133V15.943z"/>
					</g>
				</g>
			</g>
		</g>
	</g>
</g>
</svg>
